<?xml version="1.0" encoding="utf-8"?>
<!-- Generator: Adobe Illustrator 24.0.2, SVG Export Plug-In . SVG Version: 6.00 Build 0)  -->
<svg version="1.1" id="Layer_1" xmlns="http://www.w3.org/2000/svg" xmlns:xlink="http://www.w3.org/1999/xlink" x="0px" y="0px"
	 viewBox="0 0 792 612" style="enable-background:new 0 0 792 612;" xml:space="preserve">
<style type="text/css">
	.st0{fill:#FF5F00;}
	.st1{fill:#EB001B;}
	.st2{fill:#F79E1B;}
</style>
<g>
	<g>
		<g id="XMLID_3_">
			<rect x="377.9" y="273.48" class="st0" width="36.19" height="65.04"/>
			<path id="XMLID_7_" class="st1" d="M380.2,306c0-13.19,6.18-24.95,15.8-32.52c-7.04-5.54-15.91-8.84-25.56-8.84
				c-22.84,0-41.36,18.52-41.36,41.36c0,22.84,18.52,41.36,41.36,41.36c9.65,0,18.53-3.3,25.56-8.84
				C386.38,330.95,380.2,319.19,380.2,306z"/>
			<path class="st2" d="M462.92,306c0,22.84-18.52,41.36-41.36,41.36c-9.65,0-18.53-3.3-25.56-8.84c9.62-7.57,15.8-19.32,15.8-32.52
				c0-13.19-6.18-24.95-15.8-32.52c7.04-5.54,15.91-8.84,25.56-8.84C444.4,264.64,462.92,283.16,462.92,306z M458.97,331.63v-1.33
				h0.54v-0.27h-1.37v0.27h0.54v1.33H458.97z M461.63,331.63v-1.61h-0.42l-0.48,1.1l-0.48-1.1h-0.42v1.61h0.3v-1.21l0.45,1.04h0.31
				l0.45-1.05v1.21H461.63z"/>
		</g>
	</g>
</g>
</svg>
