<?xml version="1.0" encoding="UTF-8"?>
<svg width="231px" height="210px" viewBox="0 0 231 210" version="1.1" xmlns="http://www.w3.org/2000/svg" xmlns:xlink="http://www.w3.org/1999/xlink">
    <title>atoms/img/ilustraciones/big/error</title>
    <defs>
        <path d="M10.566,50.822 C-47.364,124.789 150.842,214.784 203.95,184.487 L203.95,184.487 C257.058,154.189 217.658,68.124 196.021,32.029 L196.021,32.029 C185.189,13.959 153.235,0.154 116.762,0.151 L116.762,0.151 C80.377,0.151 39.496,13.884 10.566,50.822 L10.566,50.822 Z" id="path-1"></path>
        <path d="M0.792,0.662 L0.792,27.842 C31.544,47.324 69.779,61.689 101.253,66.1 L101.253,66.1 L101.253,0.662 L0.792,0.662 Z" id="path-3"></path>
        <polygon id="path-5" points="0.792 -0.001 101.253 -0.001 101.253 4.105 0.792 4.105"></polygon>
        <path d="M0.97,0.357 L0.97,38.031308 C1.24125049,38.139872 1.51250098,38.2493045 1.78474872,38.357 L1.78474872,38.357 L38.97,38.357 L38.97,0.357 L0.97,0.357 Z" id="path-7"></path>
        <path d="M14.787,0.968 L8.828,6.928 L2.87,0.968 C2.43,0.528 1.719,0.528 1.278,0.968 L1.278,0.968 C0.838,1.409 0.838,2.12 1.278,2.56 L1.278,2.56 L7.237,8.519 L1.278,14.478 C0.838,14.919 0.838,15.63 1.278,16.07 L1.278,16.07 C1.498,16.29 1.786,16.4 2.074,16.4 L2.074,16.4 C2.362,16.4 2.651,16.29 2.87,16.07 L2.87,16.07 L8.828,10.111 L14.787,16.07 C15.008,16.29 15.296,16.4 15.584,16.4 L15.584,16.4 C15.872,16.4 16.161,16.29 16.379,16.07 L16.379,16.07 C16.82,15.63 16.82,14.919 16.379,14.478 L16.379,14.478 L10.421,8.519 L16.379,2.56 C16.82,2.12 16.82,1.409 16.379,0.968 L16.379,0.968 C16.159,0.748 15.872,0.638 15.584,0.638 L15.584,0.638 C15.296,0.638 15.008,0.748 14.787,0.968 L14.787,0.968 Z" id="path-9"></path>
        <path d="M14.787,0.968 L8.828,6.928 L2.87,0.968 C2.43,0.528 1.719,0.528 1.278,0.968 L1.278,0.968 C0.838,1.409 0.838,2.12 1.278,2.56 L1.278,2.56 L7.237,8.519 L1.278,14.478 C0.838,14.919 0.838,15.63 1.278,16.07 L1.278,16.07 C1.498,16.29 1.786,16.4 2.074,16.4 L2.074,16.4 C2.362,16.4 2.651,16.29 2.87,16.07 L2.87,16.07 L8.828,10.111 L14.787,16.07 C15.008,16.29 15.296,16.4 15.584,16.4 L15.584,16.4 C15.872,16.4 16.161,16.29 16.379,16.07 L16.379,16.07 C16.82,15.63 16.82,14.919 16.379,14.478 L16.379,14.478 L10.421,8.519 L16.379,2.56 C16.82,2.12 16.82,1.409 16.379,0.968 L16.379,0.968 C16.159,0.748 15.872,0.638 15.584,0.638 L15.584,0.638 C15.296,0.638 15.008,0.748 14.787,0.968 L14.787,0.968 Z" id="path-11"></path>
        <path d="M0.803,5.052 L7.539,25.441 C9.681,30.01 15.048,32.072 19.676,30.102 L19.676,30.102 C24.691,27.968 26.807,22 24.265,17.16 L24.265,17.16 C22.01,12.867 20.763,8.123 17.963,0.108 L17.963,0.108 L0.803,5.052 Z" id="path-13"></path>
        <path d="M6.793,1.482 C1.42,3.638 -1.25,9.702 0.785,15.129 L0.785,15.129 L5.75,28.367 L26.085,21.944 L20.715,7.627 C19.108,3.343 15.051,0.713 10.75,0.713 L10.75,0.713 C9.433,0.714 8.092,0.96 6.793,1.482 L6.793,1.482 Z" id="path-15"></path>
        <path d="M5.726,17.771 C1.008,19.882 -0.693,24.73 1.318,28.696 L1.318,28.696 C3.354,32.707 8.345,34.159 12.21,31.868 L12.21,31.868 L51.212,8.589 L48.088,0.969 L5.726,17.771 Z" id="path-17"></path>
        <path d="M6.807,0.653 C2.518,1.7 -0.114,6.034 0.929,10.332 L0.929,10.332 C1.971,14.632 6.293,17.268 10.581,16.221 L10.581,16.221 C14.871,15.174 17.502,10.842 16.46,6.542 L16.46,6.542 C15.572,2.88 12.304,0.423 8.704,0.423 L8.704,0.423 C8.077,0.423 7.442,0.498 6.807,0.653 L6.807,0.653 Z" id="path-19"></path>
        <path d="M10.019,0.362 L1.266,1.618 C0.779,1.688 0.41,2.172 0.44,2.699 L0.44,2.699 L1.781,25.325 C1.813,25.851 2.233,26.223 2.72,26.152 L2.72,26.152 L11.473,24.896 C11.96,24.827 12.329,24.343 12.299,23.816 L12.299,23.816 L10.957,1.19 C10.928,0.706 10.572,0.354 10.137,0.354 L10.137,0.354 C10.098,0.354 10.059,0.357 10.019,0.362 L10.019,0.362 Z" id="path-21"></path>
        <polygon id="path-23" points="0.319 1.99 1.411 20.429 9.103 19.326 8.01 0.886"></polygon>
        <path d="M7.68,0.865 C3.541,1.545 -0.355,4.375 0.929,12.332 L0.929,12.332 L11.145,3.275 C11.145,3.275 11.693,0.768 8.773,0.768 L8.773,0.768 C8.452,0.768 8.09,0.799 7.68,0.865 L7.68,0.865 Z" id="path-25"></path>
        <polygon id="path-27" points="0.89 3.571 2.236 17.924 14.063 14.081 12.983 0.388"></polygon>
        <path d="M1.862,1.035 L0.004,12.541 C8.696,11.833 16.309,10.032 22.375,7.029 L22.375,7.029 L22.268,0.837 L1.862,1.035 Z" id="path-29"></path>
        <path d="M2.008,0.619 C1.422,0.833 0.837,1.051 0.251,1.273 L0.251,1.273 L0.251,191.084 C43.963,209.701 92.405,216.056 115.282,203.015 L115.282,203.015 C125.609,197.129 132.311,187.755 136.251,176.199 L136.251,176.199 L136.251,103.043 C128.854,66.586 114.111,30.763 103.988,13.889 L103.988,13.889 C100.811,8.593 95.733,4.117 89.223,0.619 L89.223,0.619 L2.008,0.619 Z" id="path-31"></path>
        <path d="M1.522,0.365 L1.446,0.366 C-0.564,12.749 2.31,22.134 7.555,26.802 L7.555,26.802 C11.737,30.523 19.424,31.021 25.017,31.021 L25.017,31.021 L81.728,31.02 L79.245,80.936 L104.425,76.034 L110.25,16.872 L110.173,16.88 C110.207,16.465 110.225,16.047 110.225,15.623 L110.225,15.623 C110.225,7.171 103.429,0.299 94.99,0.226 L94.99,0.226 C87.569,0.162 78.159,0.137 68.181,0.137 L68.181,0.137 C38.306,0.137 3.353,0.354 1.522,0.365 L1.522,0.365 Z" id="path-33"></path>
        <polygon id="path-35" points="2.41 8.985 4.531 4.176 0.519 0.783"></polygon>
        <path d="M2.008,0.619 C1.422,0.833 0.837,1.051 0.251,1.273 L0.251,1.273 L0.251,191.084 C43.963,209.701 92.405,216.056 115.282,203.015 L115.282,203.015 C125.609,197.129 132.311,187.755 136.251,176.199 L136.251,176.199 L136.251,103.043 C128.854,66.586 114.111,30.763 103.988,13.889 L103.988,13.889 C100.811,8.593 95.733,4.117 89.223,0.619 L89.223,0.619" id="path-37"></path>
        <path d="M0.685,27.769 C-0.534,50.953 0.825,75.06 0.825,75.06 L0.825,75.06 L34.402,77.949 C34.402,77.949 40.043,50.503 40.883,34.761 L40.883,34.761 C41.659,20.208 34.042,4.603 34.042,4.603 L34.042,4.603 L18.395,0.322 C18.395,0.322 1.904,4.582 0.685,27.769 L0.685,27.769 Z" id="path-39"></path>
        <path d="M2.008,0.619 C1.422,0.833 0.837,1.051 0.251,1.273 L0.251,1.273 L0.251,191.084 C43.963,209.701 92.405,216.056 115.282,203.015 L115.282,203.015 C125.609,197.129 132.311,187.755 136.251,176.199 L136.251,176.199 L136.251,103.043 C128.854,66.586 114.111,30.763 103.988,13.889 L103.988,13.889 C100.811,8.593 95.733,4.117 89.223,0.619 L89.223,0.619" id="path-41"></path>
        <path d="M15.159,0.09 L4.948,0.08 C4.07,0.079 3.322,0.718 3.184,1.587 L3.184,1.587 L0.25,20.06 C0.141,20.751 0.442,21.44 1.022,21.828 L1.022,21.828 L8.112,26.563 C11.735,28.982 16.663,27.232 17.961,23.068 L17.961,23.068 C24.7,1.45 17.567,0.06 15.621,0.06 L15.621,0.06 C15.334,0.06 15.159,0.09 15.159,0.09 L15.159,0.09 Z" id="path-43"></path>
        <path d="M0.31,27.01 L15.932,31.962 C15.932,31.962 22.051,17.39 22.565,16.928 L22.565,16.928 L15.612,0.185 L0.31,27.01 Z" id="path-45"></path>
        <path d="M0.207,6.419 L4.099,7.224 C4.611,7.357 5.071,6.875 4.914,6.369 L4.914,6.369 C4.429,4.799 2.981,1.054 2.976,0.714 L2.976,0.714 L0.207,6.419 Z" id="path-47"></path>
        <path d="M0.6,0.994 C0.261,1.472 0.374,2.134 0.85,2.472 L0.85,2.472 C1.326,2.812 1.987,2.7 2.326,2.223 L2.326,2.223 C2.664,1.746 2.552,1.084 2.076,0.745 L2.076,0.745 C1.889,0.613 1.675,0.549 1.463,0.549 L1.463,0.549 C1.132,0.549 0.806,0.704 0.6,0.994 L0.6,0.994 Z" id="path-49"></path>
        <path d="M14.792,3.094 L14.793,3.095 C6.102,4.237 -0.207,6.172 0.726,13.735 L0.726,13.735 C1.73,21.88 0.954,27.608 0.954,27.608 L0.954,27.608 L8.089,24.408 L11.008,20.306 C10.899,20.869 17.173,18.435 15.775,13.264 L15.775,13.264 C15.775,13.264 25.425,13.303 26.229,12.975 L26.229,12.975 C26.232,12.974 26.233,12.972 26.236,12.971 L26.236,12.971 C26.444,12.935 31.82,11.924 30.229,5.364 L30.229,5.364 C29.351,1.747 26.149,0.258 22.723,0.258 L22.723,0.258 C19.811,0.258 16.738,1.333 14.792,3.094 L14.792,3.094 Z" id="path-51"></path>
        <path d="M3.464,0.18 C1.37,0.533 -0.042,2.522 0.312,4.619 L0.312,4.619 C0.666,6.717 2.651,8.132 4.746,7.776 L4.746,7.776 C6.84,7.423 8.251,5.435 7.898,3.337 L7.898,3.337 C7.581,1.456 5.953,0.125 4.111,0.125 L4.111,0.125 C3.898,0.125 3.681,0.143 3.464,0.18 L3.464,0.18 Z" id="path-53"></path>
        <path d="M0.825,1.06 C-1.185,13.443 1.689,22.829 6.933,27.496 L6.933,27.496 C11.114,31.217 18.802,31.716 24.395,31.716 L24.395,31.716 L94.23,31.716 C102.721,31.716 109.602,24.821 109.602,16.317 L109.602,16.317 C109.602,7.865 102.806,0.992 94.368,0.92 L94.368,0.92 C86.947,0.856 77.537,0.831 67.56,0.831 L67.56,0.831 C36.872,0.831 0.825,1.06 0.825,1.06 L0.825,1.06 Z" id="path-55"></path>
        <polygon id="path-57" points="0.629 14.893 13.065 14.893 16.27 1.536 3.785 0.827"></polygon>
        <path d="M0.173,15.092 C8.824,15.978 16.984,16.141 24.36,15.511 L24.36,15.511 L24.357,15.51 L26.993,6.887 L7.525,0.771 L0.173,15.092 Z" id="path-59"></path>
        <path d="M2.008,0.619 C1.422,0.833 0.837,1.051 0.251,1.273 L0.251,1.273 L0.251,191.084 C43.963,209.701 92.405,216.056 115.282,203.015 L115.282,203.015 C125.609,197.129 132.311,187.755 136.251,176.199 L136.251,176.199 L136.251,103.043 C128.854,66.586 114.111,30.763 103.988,13.889 L103.988,13.889 C100.811,8.593 95.733,4.117 89.223,0.619 L89.223,0.619 L2.008,0.619 Z" id="path-61"></path>
        <polygon id="path-63" points="0.475 59.14 26.127 59.14 43.115 2.178 14.981 0.221"></polygon>
        <path d="M2.008,0.619 C1.422,0.833 0.837,1.051 0.251,1.273 L0.251,1.273 L0.251,191.084 C43.963,209.701 92.405,216.056 115.282,203.015 L115.282,203.015 C125.609,197.129 132.311,187.755 136.251,176.199 L136.251,176.199 L136.251,103.043 C128.854,66.586 114.111,30.763 103.988,13.889 L103.988,13.889 C100.811,8.593 95.733,4.117 89.223,0.619 L89.223,0.619" id="path-65"></path>
        <path d="M2.008,0.619 C1.422,0.833 0.837,1.051 0.251,1.273 L0.251,1.273 L0.251,191.084 C43.963,209.701 92.405,216.056 115.282,203.015 L115.282,203.015 C125.609,197.129 132.311,187.755 136.251,176.199 L136.251,176.199 L136.251,103.043 C128.854,66.586 114.111,30.763 103.988,13.889 L103.988,13.889 C100.811,8.593 95.733,4.117 89.223,0.619 L89.223,0.619" id="path-67"></path>
        <path d="M0.387,12.702 L15.034,32.277 C16.676,34.47 19.095,35.948 21.793,36.407 L21.793,36.407 L62.853,47.095 L64.511,37.568 L30.575,20.46 L17.957,0.607 L0.387,12.702 Z" id="path-69"></path>
        <path d="M1.74,0.524 L0.775,10.098 L22.284,10.098 C19.56,1.577 11.832,0.059 6.67,0.059 L6.67,0.059 C3.812,0.059 1.74,0.524 1.74,0.524 L1.74,0.524 Z" id="path-71"></path>
    </defs>
    <g id="UI-KIT" stroke="none" stroke-width="1" fill="none" fill-rule="evenodd">
        <g id="Correos_web_UIkit_54_Illustrations" transform="translate(-65.000000, -3124.000000)">
            <g id="Group" transform="translate(64.000000, 3112.000000)">
                <g id="Group-130" transform="translate(1.000000, 11.000000)">
                    <g id="Group-3" transform="translate(0.000000, 18.620000)">
                        <mask id="mask-2" fill="white">
                            <use xlink:href="#path-1"></use>
                        </mask>
                        <g id="Clip-2"></g>
                        <polygon id="Fill-1" fill="#F3F2F2" mask="url(#mask-2)" points="259.2297 20.0875 222.8217 207.3895 -21.5013 159.8975 14.9067 -27.4045"></polygon>
                    </g>
                    <g id="Group-6" transform="translate(55.000000, 141.620000)">
                        <mask id="mask-4" fill="white">
                            <use xlink:href="#path-3"></use>
                        </mask>
                        <g id="Clip-5"></g>
                        <polygon id="Fill-4" fill="#DACC92" mask="url(#mask-4)" points="-4.208 92.474 106.253 92.474 106.253 -4.339 -4.208 -4.339"></polygon>
                    </g>
                    <g id="Group-9" transform="translate(55.000000, 141.620000)">
                        <mask id="mask-6" fill="white">
                            <use xlink:href="#path-5"></use>
                        </mask>
                        <g id="Clip-8"></g>
                        <polygon id="Fill-7" fill="#C4BDA4" mask="url(#mask-6)" points="-4.208 9.104 106.253 9.104 106.253 -5.001 -4.208 -5.001"></polygon>
                    </g>
                    <g id="Group-12" transform="translate(86.000000, 142.620000)">
                        <mask id="mask-8" fill="white">
                            <use xlink:href="#path-7"></use>
                        </mask>
                        <g id="Clip-11"></g>
                        <polygon id="Fill-10" fill="#FFCD00" mask="url(#mask-8)" points="-4.03 49.11 44.075 49.11 44.075 -4.643 -4.03 -4.643"></polygon>
                    </g>
                    <g id="Group-17" transform="translate(170.000000, 27.620000)">
                        <g id="Group" transform="translate(0.702400, 0.619200)">
                            <path d="M1.44950718e-12,14.9 C1.44950718e-12,23.129 6.671,29.799 14.9,29.799 C23.129,29.799 29.8,23.129 29.8,14.9 C29.8,6.671 23.129,1.13686838e-13 14.9,1.13686838e-13 C6.671,1.13686838e-13 1.44950718e-12,6.671 1.44950718e-12,14.9" id="Fill-13" fill="#F32735"></path>
                            <g id="Group-20" transform="translate(6.297600, 6.380800)">
                                <mask id="mask-10" fill="white">
                                    <use xlink:href="#path-9"></use>
                                </mask>
                                <g id="Clip-19"></g>
                                <polygon id="Fill-18" fill="#FFFFFF" mask="url(#mask-10)" points="-446 1364 1175.174 1364 1175.174 -878.623 -446 -878.623"></polygon>
                            </g>
                            <g id="Group-23" transform="translate(6.297600, 6.380800)">
                                <mask id="mask-12" fill="white">
                                    <use xlink:href="#path-11"></use>
                                </mask>
                                <g id="Clip-22"></g>
                                <polygon id="Fill-21" fill="#FFFFFF" mask="url(#mask-12)" points="-4.681 22.029 22.339 22.029 22.339 -4.991 -4.681 -4.991"></polygon>
                            </g>
                        </g>
                        <path d="M14.2371,15.5192 L8.2781,9.5602 C7.8381,9.1202 7.8381,8.4092 8.2781,7.9682 C8.7181,7.5282 9.4301,7.5282 9.8701,7.9682 L15.8291,13.9272 L21.7881,7.9682 C22.2281,7.5282 22.9401,7.5282 23.3801,7.9682 C23.8201,8.4092 23.8201,9.1202 23.3801,9.5602 L17.4211,15.5192 L23.3801,21.4782 C23.8201,21.9182 23.8201,22.6292 23.3801,23.0702 C23.1601,23.2902 22.8721,23.4002 22.5841,23.4002 C22.2961,23.4002 22.0081,23.2902 21.7881,23.0702 L15.8291,17.1112 L9.8701,23.0702 C9.6511,23.2902 9.3621,23.4002 9.0741,23.4002 C8.7861,23.4002 8.4981,23.2902 8.2781,23.0702 C7.8381,22.6292 7.8381,21.9182 8.2781,21.4782 L14.2371,15.5192 Z" id="Fill-15" fill="#FFFFFF"></path>
                    </g>
                    <g id="Group-26" transform="translate(95.000000, 69.620000)">
                        <mask id="mask-14" fill="white">
                            <use xlink:href="#path-13"></use>
                        </mask>
                        <g id="Clip-25"></g>
                        <polygon id="Fill-24" fill="#F2B5B5" mask="url(#mask-14)" points="19.7698 -8.431 -7.3782 3.093 8.4198 40.312 35.5688 28.789"></polygon>
                    </g>
                    <g id="Group-29" transform="translate(88.000000, 47.620000)">
                        <mask id="mask-16" fill="white">
                            <use xlink:href="#path-15"></use>
                        </mask>
                        <g id="Clip-28"></g>
                        <polygon id="Fill-27" fill="#FFCD00" mask="url(#mask-16)" points="8.0574 -10.5961 -14.7976 18.6569 16.1224 42.8149 38.9784 13.5609"></polygon>
                    </g>
                    <g id="Group-32" transform="translate(103.000000, 67.620000)">
                        <mask id="mask-18" fill="white">
                            <use xlink:href="#path-17"></use>
                        </mask>
                        <g id="Clip-31"></g>
                        <polygon id="Fill-30" fill="#F2B5B5" mask="url(#mask-18)" points="57.2668 -3.2474 -1.6162 -8.3984 -5.5702 36.7956 53.3128 41.9476"></polygon>
                    </g>
                    <g id="Group-35" transform="translate(146.000000, 62.620000)">
                        <mask id="mask-20" fill="white">
                            <use xlink:href="#path-19"></use>
                        </mask>
                        <g id="Clip-34"></g>
                        <polygon id="Fill-33" fill="#F2B5B5" mask="url(#mask-20)" points="22.7732 -3.3949 -3.1158 -5.6599 -5.3848 20.2691 20.5042 22.5341"></polygon>
                    </g>
                    <g id="Group-38" transform="translate(151.000000, 46.620000)">
                        <mask id="mask-22" fill="white">
                            <use xlink:href="#path-21"></use>
                        </mask>
                        <g id="Clip-37"></g>
                        <polygon id="Fill-36" fill="#000000" mask="url(#mask-22)" points="19.7473 -3.8285 -3.8377 -5.8915 -7.0077 30.3425 16.5773 32.4055"></polygon>
                    </g>
                    <g id="Group-41" transform="translate(152.000000, 48.620000)">
                        <mask id="mask-24" fill="white">
                            <use xlink:href="#path-23"></use>
                        </mask>
                        <g id="Clip-40"></g>
                        <polygon id="Fill-39" fill="#FFFFFF" mask="url(#mask-24)" points="16.1121 -3.4242 -4.0719 -5.1902 -6.6909 24.7398 13.4931 26.5058"></polygon>
                    </g>
                    <g id="Group-44" transform="translate(146.000000, 60.620000)">
                        <mask id="mask-26" fill="white">
                            <use xlink:href="#path-25"></use>
                        </mask>
                        <g id="Clip-43"></g>
                        <polygon id="Fill-42" fill="#F2B5B5" mask="url(#mask-26)" points="16.7737 -3.5687 -3.1013 -5.3077 -5.0383 16.8293 14.8367 18.5683"></polygon>
                    </g>
                    <g id="Group-47" transform="translate(161.000000, 184.620000)">
                        <mask id="mask-28" fill="white">
                            <use xlink:href="#path-27"></use>
                        </mask>
                        <g id="Clip-46"></g>
                        <polygon id="Fill-45" fill="#F2B5B5" mask="url(#mask-28)" points="-8.4109 1.3356 15.9741 -6.5874 23.4111 16.3016 -0.9739 24.2256"></polygon>
                    </g>
                    <g id="Group-50" transform="translate(160.000000, 197.620000)">
                        <mask id="mask-30" fill="white">
                            <use xlink:href="#path-29"></use>
                        </mask>
                        <g id="Clip-49"></g>
                        <polygon id="Fill-48" fill="#F7F7F7" mask="url(#mask-30)" points="-7.281 -3.8051 49.315 -4.7931 49.886 27.8959 -6.711 28.8839"></polygon>
                    </g>
                    <g id="Group-53" transform="translate(69.000000, 0.620000)">
                        <mask id="mask-32" fill="white">
                            <use xlink:href="#path-31"></use>
                        </mask>
                        <g id="Clip-52"></g>
                        <path d="M135.0481,215.6022 L89.8981,216.3902 L135.0481,215.6022 Z M96.4751,207.4142 C96.5201,210.0052 98.6541,212.0692 101.2401,212.0242 C103.8271,211.9792 105.8881,209.8412 105.8421,207.2502 C105.7971,204.6602 103.6631,202.5962 101.0771,202.6412 C98.4901,202.6862 96.4291,204.8232 96.4751,207.4142 Z M121.5301,208.5752 L118.7621,211.5302 L121.5301,208.5752 Z M117.2961,207.6782 L114.5271,210.6342 L117.2961,207.6782 Z" id="Stroke-51" stroke="#0D0C0E" stroke-width="0.736" stroke-linecap="round" stroke-linejoin="round" mask="url(#mask-32)"></path>
                    </g>
                    <g id="Group-56" transform="translate(75.000000, 114.620000)">
                        <mask id="mask-34" fill="white">
                            <use xlink:href="#path-33"></use>
                        </mask>
                        <g id="Clip-55"></g>
                        <polygon id="Fill-54" fill="#001633" mask="url(#mask-34)" points="-4.198 85.936 115.25 85.936 115.25 -4.863 -4.198 -4.863"></polygon>
                    </g>
                    <g id="Group-59" transform="translate(104.000000, 32.620000)">
                        <mask id="mask-36" fill="white">
                            <use xlink:href="#path-35"></use>
                        </mask>
                        <g id="Clip-58"></g>
                        <polygon id="Fill-57" fill="#0A090B" mask="url(#mask-36)" points="-4.481 13.985 9.531 13.985 9.531 -4.217 -4.481 -4.217"></polygon>
                    </g>
                    <g id="Group-62" transform="translate(69.000000, 0.620000)">
                        <mask id="mask-38" fill="white">
                            <use xlink:href="#path-37"></use>
                        </mask>
                        <g id="Clip-61"></g>
                        <line x1="49.4631" y1="30.1139" x2="47.8311" y2="29.9199" id="Stroke-60" stroke="#0A090B" stroke-width="0.552" stroke-linecap="round" stroke-linejoin="round" mask="url(#mask-38)"></line>
                    </g>
                    <g id="Group-65" transform="translate(71.000000, 40.620000)">
                        <mask id="mask-40" fill="white">
                            <use xlink:href="#path-39"></use>
                        </mask>
                        <g id="Clip-64"></g>
                        <polygon id="Fill-63" fill="#FFCD00" mask="url(#mask-40)" points="-4.823 82.949 45.939 82.949 45.939 -4.678 -4.823 -4.678"></polygon>
                    </g>
                    <g id="Group-68" transform="translate(69.000000, 0.620000)">
                        <mask id="mask-42" fill="white">
                            <use xlink:href="#path-41"></use>
                        </mask>
                        <g id="Clip-67"></g>
                        <line x1="32.2278" y1="67.566" x2="26.6348" y2="52.985" id="Stroke-66" stroke="#000000" stroke-width="0.736" stroke-linecap="round" stroke-linejoin="round" mask="url(#mask-42)"></line>
                    </g>
                    <g id="Group-71" transform="translate(101.000000, 10.620000)">
                        <mask id="mask-44" fill="white">
                            <use xlink:href="#path-43"></use>
                        </mask>
                        <g id="Clip-70"></g>
                        <polygon id="Fill-69" fill="#FCBFBF" mask="url(#mask-44)" points="-4.772 32.663 25.797 32.663 25.797 -4.94 -4.772 -4.94"></polygon>
                    </g>
                    <g id="Group-74" transform="translate(88.000000, 15.620000)">
                        <mask id="mask-46" fill="white">
                            <use xlink:href="#path-45"></use>
                        </mask>
                        <g id="Clip-73"></g>
                        <polygon id="Fill-72" fill="#FCBFBF" mask="url(#mask-46)" points="-4.69 36.962 27.565 36.962 27.565 -4.815 -4.69 -4.815"></polygon>
                    </g>
                    <g id="Group-77" transform="translate(118.000000, 22.620000)">
                        <mask id="mask-48" fill="white">
                            <use xlink:href="#path-47"></use>
                        </mask>
                        <g id="Clip-76"></g>
                        <polygon id="Fill-75" fill="#FCBFBF" mask="url(#mask-48)" points="-4.793 12.247 9.945 12.247 9.945 -4.286 -4.793 -4.286"></polygon>
                    </g>
                    <g id="Group-80" transform="translate(117.000000, 21.620000)">
                        <mask id="mask-50" fill="white">
                            <use xlink:href="#path-49"></use>
                        </mask>
                        <g id="Clip-79"></g>
                        <polygon id="Fill-78" fill="#000000" mask="url(#mask-50)" points="-4.595 7.668 7.522 7.668 7.522 -4.452 -4.595 -4.452"></polygon>
                    </g>
                    <g id="Group-83" transform="translate(95.000000, 1.620000)">
                        <mask id="mask-52" fill="white">
                            <use xlink:href="#path-51"></use>
                        </mask>
                        <g id="Clip-82"></g>
                        <polygon id="Fill-81" fill="#333333" mask="url(#mask-52)" points="-4.365 32.608 35.523 32.608 35.523 -4.743 -4.365 -4.743"></polygon>
                    </g>
                    <g id="Group-86" transform="translate(99.000000, 17.620000)">
                        <mask id="mask-54" fill="white">
                            <use xlink:href="#path-53"></use>
                        </mask>
                        <g id="Clip-85"></g>
                        <polygon id="Fill-84" fill="#FCBFBF" mask="url(#mask-54)" points="-4.742 12.831 12.952 12.831 12.952 -4.875 -4.742 -4.875"></polygon>
                    </g>
                    <g id="Group-89" transform="translate(71.000000, 114.620000)">
                        <mask id="mask-56" fill="white">
                            <use xlink:href="#path-55"></use>
                        </mask>
                        <g id="Clip-88"></g>
                        <polygon id="Fill-87" fill="#002E6D" mask="url(#mask-56)" points="-4.82 36.716 114.602 36.716 114.602 -4.168 -4.82 -4.168"></polygon>
                    </g>
                    <g id="Group-92" transform="translate(143.000000, 184.620000)">
                        <mask id="mask-58" fill="white">
                            <use xlink:href="#path-57"></use>
                        </mask>
                        <g id="Clip-91"></g>
                        <polygon id="Fill-90" fill="#F2B5B5" mask="url(#mask-58)" points="-4.371 19.893 21.269 19.893 21.269 -4.173 -4.371 -4.173"></polygon>
                    </g>
                    <g id="Group-95" transform="translate(136.000000, 194.620000)">
                        <mask id="mask-60" fill="white">
                            <use xlink:href="#path-59"></use>
                        </mask>
                        <g id="Clip-94"></g>
                        <polygon id="Fill-93" fill="#FFFFFE" mask="url(#mask-60)" points="0.3245 -6.6595 54.4555 9.8905 44.8975 41.1555 -9.2345 24.6065"></polygon>
                    </g>
                    <g id="Group-98" transform="translate(69.000000, 0.620000)">
                        <mask id="mask-62" fill="white">
                            <use xlink:href="#path-61"></use>
                        </mask>
                        <g id="Clip-97"></g>
                        <path d="M109.217,224.5133 L66.033,211.3103 L109.217,224.5133 Z M75.062,204.8063 C74.304,207.2843 75.696,209.9073 78.17,210.6633 C80.644,211.4193 83.264,210.0243 84.022,207.5453 C84.78,205.0673 83.388,202.4453 80.914,201.6893 C78.44,200.9323 75.82,202.3273 75.062,204.8063 Z M98.532,213.6523 L94.987,215.6073 L98.532,213.6523 Z M94.782,211.4913 L91.236,213.4473 L94.782,211.4913 Z" id="Stroke-96" stroke="#0D0C0E" stroke-width="0.736" stroke-linecap="round" stroke-linejoin="round" mask="url(#mask-62)"></path>
                    </g>
                    <g id="Group-101" transform="translate(137.000000, 132.620000)">
                        <mask id="mask-64" fill="white">
                            <use xlink:href="#path-63"></use>
                        </mask>
                        <g id="Clip-100"></g>
                        <polygon id="Fill-99" fill="#002E6D" mask="url(#mask-64)" points="-4.525 64.139 48.115 64.139 48.115 -4.779 -4.525 -4.779"></polygon>
                    </g>
                    <g id="Group-108" transform="translate(69.000000, 0.620000)">
                        <g id="Group-104">
                            <mask id="mask-66" fill="white">
                                <use xlink:href="#path-65"></use>
                            </mask>
                            <g id="Clip-103"></g>
                            <line x1="79.1614" y1="145.9498" x2="84.0304" y2="142.8998" id="Stroke-102" stroke="#FFFFFF" stroke-width="0.736" stroke-linecap="round" stroke-linejoin="round" mask="url(#mask-66)"></line>
                        </g>
                        <g id="Group-107">
                            <mask id="mask-68" fill="white">
                                <use xlink:href="#path-67"></use>
                            </mask>
                            <g id="Clip-106"></g>
                            <g id="Group" mask="url(#mask-68)">
                                <g transform="translate(26.000000, 150.380000)" id="atoms/ico/24px/ico_correos">
                                    <path d="M15.1251833,8.89139167 L11.0001833,8.89139167 L6.87518333,8.89139167 L6.87518333,8.194725 L6.87518333,7.49805833 L11.0001833,7.49805833 L15.1251833,7.49805833 L15.1251833,8.194725 L15.1251833,8.89139167 Z M12.3751833,15.5088083 C12.3751833,14.7388083 11.7591833,14.1145583 11.0001833,14.1145583 C10.2402667,14.1145583 9.62518333,14.7388083 9.62518333,15.5088083 C9.62518333,16.2778917 10.2402667,16.9021417 11.0001833,16.9021417 C11.7591833,16.9021417 12.3751833,16.2778917 12.3751833,15.5088083 L12.3751833,15.5088083 Z M11.0001833,19.689725 C15.84935,19.689725 19.8707667,16.0560583 20.5289333,11.3278917 L19.1365167,11.3278917 C18.4847667,15.2833083 15.0885167,18.295475 11.0001833,18.295475 C9.48126667,18.295475 8.25201667,17.0478917 8.25201667,15.5088083 C8.25201667,13.969725 9.48126667,12.7230583 11.0001833,12.7230583 C12.5191,12.7230583 13.7501833,13.9330583 13.7501833,15.5088083 C13.7501833,15.8158917 13.6887667,16.106475 13.5980167,16.3833083 C14.1471,16.155975 14.6567667,15.8553083 15.1251833,15.4996417 C15.1251833,13.199725 13.2771833,11.3288083 11.0001833,11.3288083 C8.72226667,11.3288083 6.87518333,13.199725 6.87518333,15.5088083 C6.87518333,17.816975 8.72226667,19.689725 11.0001833,19.689725 L11.0001833,19.689725 Z M1.48426667,11.3278917 C1.9206,14.4088083 3.76585,17.0240583 6.3481,18.4723917 C5.81368333,17.613475 5.50018333,16.5996417 5.50018333,15.5088083 L5.50018333,15.5088083 L5.50018333,11.3278917 L1.48426667,11.3278917 Z M17.8751833,9.93455833 L22.0001833,9.93455833 C22.0001833,16.0918083 17.0749333,21.0830583 11.0001833,21.0830583 C4.92543333,21.0830583 0.000183333333,16.0918083 0.000183333333,9.93455833 L6.87518333,9.93455833 L6.87518333,11.8311417 C7.8826,10.6706417 9.35476667,9.93455833 11.0001833,9.93455833 C13.6236833,9.93455833 15.8145167,11.797225 16.3636,14.288725 C17.3086833,13.0961417 17.8751833,11.582725 17.8751833,9.93455833 L17.8751833,9.93455833 Z M14.4376833,2.26939167 C15.9556833,2.26939167 17.1876833,3.516975 17.1876833,5.05605833 L17.1876833,6.45030833 L15.8126833,6.45030833 L15.8126833,5.05605833 C15.8126833,4.286975 15.1966833,3.662725 14.4376833,3.662725 C14.31485,3.662725 14.1975167,3.684725 14.08385,3.714975 C14.3020167,4.11464167 14.4376833,4.567475 14.4376833,5.05605833 L14.4376833,6.45030833 L13.0626833,6.45030833 L13.0626833,5.05605833 C13.0626833,4.286975 12.4466833,3.662725 11.6876833,3.662725 L11.6876833,6.45030833 L10.3126833,6.45030833 L10.3126833,3.662725 C9.55276667,3.662725 8.93768333,4.286975 8.93768333,5.05605833 L8.93768333,6.45030833 L7.56268333,6.45030833 L7.56268333,5.05605833 C7.56268333,4.567475 7.69743333,4.11464167 7.91651667,3.71589167 C7.80285,3.684725 7.68551667,3.662725 7.56268333,3.662725 C6.80276667,3.662725 6.18768333,4.286975 6.18768333,5.05605833 L6.18768333,6.45030833 L4.81268333,6.45030833 L4.81268333,5.05605833 C4.81268333,3.516975 6.04376667,2.26939167 7.56268333,2.26939167 C8.06776667,2.26939167 8.53893333,2.41055833 8.94501667,2.65164167 C9.34926667,2.41514167 9.81218333,2.26939167 10.3126833,2.26939167 C10.5464333,2.26939167 10.7691833,2.30880833 10.9855167,2.36380833 C11.2101,2.304225 11.4447667,2.26939167 11.6876833,2.26939167 C12.1909333,2.26939167 12.6556833,2.41605833 13.0617667,2.65530833 C13.46785,2.41605833 13.9344333,2.26939167 14.4376833,2.26939167 L14.4376833,2.26939167 Z M11.2999333,0.656975 L11.9480167,0.656975 L11.9480167,1.264725 L11.2999333,1.264725 L11.2999333,1.92105833 L10.7004333,1.92105833 L10.7004333,1.264725 L10.05235,1.264725 L10.05235,0.656975 L10.7004333,0.656975 L10.7004333,-0.000275 L11.2999333,-0.000275 L11.2999333,0.656975 Z" id="Fill-1" fill="#002E6D"></path>
                                </g>
                            </g>
                            <line x1="70.9231" y1="181.0875" x2="96.9181" y2="181.0875" id="Stroke-105" stroke="#FFFFFF" stroke-width="0.736" stroke-linecap="round" stroke-linejoin="round" mask="url(#mask-68)"></line>
                        </g>
                    </g>
                    <g id="Group-111" transform="translate(82.000000, 68.620000)">
                        <mask id="mask-70" fill="white">
                            <use xlink:href="#path-69"></use>
                        </mask>
                        <g id="Clip-110"></g>
                        <polygon id="Fill-109" fill="#FCBFBF" mask="url(#mask-70)" points="-4.613 52.095 69.511 52.095 69.511 -4.393 -4.613 -4.393"></polygon>
                    </g>
                    <g id="Group-114" transform="translate(144.000000, 105.620000)">
                        <mask id="mask-72" fill="white">
                            <use xlink:href="#path-71"></use>
                        </mask>
                        <g id="Clip-113"></g>
                        <polygon id="Fill-112" fill="#FCBFBF" mask="url(#mask-72)" points="-4.225 15.097 27.284 15.097 27.284 -4.941 -4.225 -4.941"></polygon>
                    </g>
                    <g id="Group-129" transform="translate(115.000000, 18.620000)">
                        <polygon id="Fill-115" fill="#F3F2F2" points="38.1443 37.401 44.7463 36.544 44.9653 40.598 38.4193 41.405"></polygon>
                        <polygon id="Fill-117" fill="#EAEAEA" points="38.1443 37.4078 44.7093 36.5438 44.8543 38.5538 38.2123 39.3838"></polygon>
                        <polygon id="Fill-119" fill="#F3F2F2" points="38.4744 41.9117 45.0204 41.1097 45.3504 46.8317 38.7494 47.6947"></polygon>
                        <polygon id="Fill-121" fill="#EAEAEA" points="38.3733 41.9742 44.9383 41.1102 45.0833 43.1202 38.4413 43.9512"></polygon>
                        <path d="M42.0715,45.2115 C42.0715,45.2115 42.7465,42.1235 38.6075,42.8015 C34.4685,43.4805 30.5725,46.3115 31.8555,54.2695 L42.0715,45.2115 Z" id="Fill-123" fill="#F2B5B5"></path>
                        <path d="M0.134,1.7018 C0.53,1.7488 0.92,1.7738 1.3,1.7038 C1.678,1.6538 2.048,1.5648 2.395,1.4158 C2.744,1.2668 3.05,1.0478 3.399,0.9108 C3.753,0.7738 4.11,0.6378 4.539,0.5388 L4.59,0.5948 C4.414,1.0148 4.103,1.3198 3.76,1.5688 C3.411,1.8158 2.979,1.9088 2.566,1.9908 C2.153,2.0818 1.724,2.1038 1.308,2.0788 C0.888,2.0498 0.488,1.9188 0.113,1.7738 L0.134,1.7018 Z" id="Fill-125" fill="#333333"></path>
                        <polygon id="Fill-127" fill="#EAEAEA" points="38.1443 33.6178 44.7093 32.7538 44.8543 34.7638 38.2123 35.5948"></polygon>
                    </g>
                </g>
            </g>
        </g>
    </g>
</svg>