<?xml version="1.0" encoding="UTF-8"?>
<svg width="202px" height="185px" viewBox="0 0 202 185" version="1.1" xmlns="http://www.w3.org/2000/svg" xmlns:xlink="http://www.w3.org/1999/xlink">
    <title>atoms/img/ilustraciones/big/login</title>
    <g id="UI-KIT" stroke="none" stroke-width="1" fill="none" fill-rule="evenodd">
        <g id="Correos_web_UIkit_54_Illustrations" transform="translate(-418.000000, -2221.000000)">
            <g id="Group" transform="translate(400.000000, 2200.000000)">
                <g id="Group-30" transform="translate(0.000000, 18.000000)">
                    <path d="M58.2882167,35.7138188 C30.0938393,61.1166618 13.8925423,166.32736 106.894093,197.022232 C199.895643,227.717104 213.595854,56.7782873 177.639538,14.8683406 C141.683222,-27.041606 86.4825942,10.3109757 58.2882167,35.7138188 Z" id="bg" fill="#F3F2F2" transform="translate(116.123475, 98.339765) scale(-1, 1) rotate(-259.000000) translate(-116.123475, -98.339765) "></path>
                    <g id="Group-51" transform="translate(106.850909, 95.874545) scale(-1, 1) translate(-106.850909, -95.874545) translate(34.850909, 3.374545)">
                        <path d="M6.82943723,129.238514 C8.61885995,99.6576063 16.4182748,91.6253933 16.5643082,91.4781503 C16.566365,91.4760163 16.566365,91.4760163 16.566365,91.4760163 C20.2521645,89.12653 23.316808,88.1171685 25.8651927,88.1171685 C34.7773406,88.1171685 37.3545207,100.464242 37.9263132,111.046533 C37.8872339,111.456253 37.8481545,111.861705 37.8090752,112.260754 C37.6918372,112.277826 37.5622583,112.29063 37.4223954,112.29063 C37.2064305,112.29063 36.9637272,112.262888 36.7004558,112.183932 C36.2088788,112.034555 35.7173017,111.633371 35.468428,111.003854 C35.1845885,110.357265 35.3491332,109.727748 35.6658816,108.726922 C35.7975172,108.244648 35.9126985,107.619399 35.7070177,107.017623 C35.5033937,106.407311 35.0179871,105.997592 34.5613758,105.805535 C34.228173,105.658292 33.8929133,105.598542 33.5741081,105.598542 C33.0023155,105.598542 32.484,105.790598 32.1261155,106.014663 C30.9928144,106.75728 30.6143618,107.455084 30.6822364,107.546844 C30.6945773,107.56605 30.7130885,107.572452 30.739827,107.572452 C30.9413942,107.572452 31.5460957,107.117919 32.4510911,106.725271 C32.6814535,106.601501 32.9735202,106.539617 33.2738142,106.539617 C34.1829232,106.539617 35.1516796,107.128589 34.6333641,108.426034 C34.5181828,108.859227 34.345411,109.332966 34.2939908,109.879259 C34.238457,110.440489 34.3577518,110.986782 34.5716598,111.432779 C34.9953622,112.343979 35.8386534,112.871066 36.5420816,112.952156 C36.6613765,112.96496 36.7745009,112.971362 36.8814549,112.971362 C37.2311122,112.971362 37.5211221,112.909477 37.7555982,112.819851 C37.5190653,115.297375 37.3133845,117.555101 37.1447263,119.518341 C36.9287615,122.030008 36.7724441,124.061535 36.688115,125.469946 C36.6798878,125.602252 36.6737173,125.728155 36.6675469,125.847657 C34.1973208,125.922345 28.654224,126.396084 22.2266999,127.102423 C14.6021136,127.938934 8.26097541,128.82666 6.82943723,129.238514 M15.8937889,118.141939 C15.9986861,118.141939 16.1056401,118.150475 16.2146509,118.167547 C16.8933974,118.252905 17.3253271,118.726643 17.9855623,119.526877 C18.3125948,119.898185 18.7671493,120.322843 19.3697939,120.453014 C19.4993728,120.480756 19.6289517,120.495693 19.754417,120.495693 C20.2213123,120.495693 20.653242,120.307905 20.9638199,120.068902 C21.7885998,119.45859 22.053928,118.47697 22.0580416,117.80264 C22.0374736,116.424104 21.6672482,115.7263 21.5520669,115.7263 C21.5500101,115.7263 21.5500101,115.7263 21.5479533,115.7263 C21.3731247,115.73697 21.4718514,116.579883 21.30525,117.72155 C21.251773,118.474836 20.5627424,119.413777 19.7914395,119.413777 C19.4500094,119.413777 19.0941817,119.230257 18.7692061,118.769322 C18.4730258,118.442827 18.1727318,118.043777 17.7510863,117.71088 C17.3191566,117.371581 16.8070115,117.194462 16.3277753,117.151783 C16.2413894,117.143247 16.1570603,117.138979 16.0727312,117.138979 C15.2068151,117.138979 14.4457962,117.578574 14.0508892,118.107796 C13.1911435,119.281472 13.5449145,120.252422 13.6662661,120.252422 C13.6703797,120.252422 13.6744933,120.250288 13.678607,120.248154 L13.6806638,120.248154 C13.839038,120.248154 13.8184699,119.38817 14.6021136,118.645553 C14.9168052,118.348933 15.3754733,118.141939 15.8937889,118.141939 M20.085563,99.6384006 C19.764701,99.6384006 19.4520662,99.6981514 19.1723404,99.7984474 C18.2467769,100.118541 17.635905,100.918775 17.46519,101.631516 C17.1525552,103.020722 17.7983928,103.754803 17.9403126,103.754803 C17.9505966,103.754803 17.9588238,103.752669 17.9629375,103.744133 C18.1151412,103.686516 17.7531431,102.905488 18.1809591,101.891859 C18.3866398,101.405317 18.8329671,100.952918 19.4685207,100.7758 C19.6268949,100.724585 19.7832123,100.701111 19.9395297,100.701111 C20.4249363,100.701111 20.9247406,100.92731 21.6178848,101.270878 C21.9593149,101.426656 22.3850741,101.578167 22.8375718,101.578167 C22.9712643,101.578167 23.1090704,101.565364 23.2468765,101.533354 C23.8577484,101.403183 24.3102461,100.957186 24.5508926,100.511189 C25.0671513,99.6063913 24.9252316,98.5970298 24.664017,97.9803163 C24.1333606,96.7853006 23.5492272,96.2923566 23.4073075,96.2923566 C23.3990803,96.2923566 23.390853,96.2923566 23.3867394,96.2966245 C23.230422,96.3798488 23.6500108,97.107528 23.9441343,98.2235874 C24.2341442,99.0579644 23.8227827,100.496251 22.8149469,100.496251 C22.5866412,100.496251 22.3274834,100.421563 22.0374736,100.248712 C21.6384529,100.073728 21.20858,99.8368586 20.6923213,99.7109552 C20.4886973,99.6618742 20.2850734,99.6384006 20.085563,99.6384006 M37.6671555,125.845523 C37.5581447,125.839121 37.426509,125.836987 37.2722484,125.836987 C37.2043737,125.836987 37.1303287,125.836987 37.0542268,125.839121 C37.0706812,125.734557 37.0871357,125.627859 37.1035902,125.516893 C37.3133845,124.12342 37.5848832,122.102563 37.8975179,119.603699 C37.9468813,119.206783 37.9983015,118.799198 38.0497217,118.378808 C37.9777334,122.420522 37.7124052,125.361115 37.6671555,125.845523" id="Fill-45-Copy" fill="#BFB9C4"></path>
                        <path d="M49.6194138,84.2008499 C46.1586526,84.2008499 42.9429189,82.4658242 40.9766234,79.6613468 C41.0920496,79.4985594 41.2074758,79.3337113 41.318852,79.1688633 C42.6371407,79.758195 44.0809809,80.0796487 45.5693714,80.0796487 C46.385455,80.0796487 47.2157136,79.9828005 48.0439473,79.7829223 C49.7773654,79.3604991 51.3123315,78.5280165 52.5698696,77.4070498 C53.6087055,77.5327464 54.6556415,77.5904432 55.6924523,77.5904432 C56.1116317,77.5904432 56.5328361,77.5822008 56.9479654,77.5615948 C57.8065744,77.5224434 58.6611334,77.4503224 59.5136673,77.3472924 C58.2804294,80.5288597 55.5891762,83.055156 52.0939897,83.9020628 C51.263731,84.1040017 50.4354973,84.2008499 49.6194138,84.2008499" id="Fill-51-Copy" fill="#BFB9C4"></path>
                        <path d="M37.3701526,127.280355 L37.3701526,127.280355 C37.3128209,127.274058 37.3066783,126.806019 37.3455819,125.9434 C37.4684353,125.922412 37.5830986,125.899325 37.6895716,125.878336 C37.5400999,126.78713 37.4295317,127.280355 37.3701526,127.280355 M37.3701526,125.490053 C37.3762952,125.372518 37.3824379,125.248687 37.3906281,125.11856 C37.474578,123.733332 37.6301924,121.735246 37.845186,119.264924 C38.0130858,117.334001 38.2178416,115.113439 38.4533108,112.676697 C38.4717388,112.494099 38.4881192,112.311501 38.5065473,112.126804 C38.5454509,111.734323 38.5843545,111.335545 38.6232581,110.93257 C38.9529149,107.584937 39.3317132,103.888898 39.7412248,100.008161 C39.9214099,98.1464994 40.0155975,96.3310118 39.7637479,94.6414538 C39.5323738,92.9455994 38.8914882,91.4239479 37.9598493,90.1898361 C37.3373916,89.3628972 36.626889,88.6660857 35.8754352,88.0868087 C35.5375881,87.8265538 35.1935984,87.5893861 34.8434659,87.3753054 C34.2660546,87.0206032 33.6743103,86.7225694 33.0887087,86.4791051 C32.730386,86.3300882 32.3741109,86.1999608 32.021931,86.0887228 C31.725035,85.9921767 31.4322342,85.9103223 31.1435286,85.8410609 C30.8384424,85.765503 30.5374514,85.7004393 30.2446506,85.6437709 C30.7463023,85.507347 31.2418114,85.3520336 31.7291302,85.1799296 C32.183688,85.2869699 32.6525788,85.4233938 33.1296599,85.5913002 C34.0101098,85.9040258 34.9110354,86.3279894 35.7853426,86.8883769 C36.8439301,87.5683978 37.8574714,88.4478074 38.7358738,89.5706813 C39.7842235,90.905537 40.5336297,92.6370715 40.7977647,94.4777451 C41.0823753,96.3163199 40.9840925,98.2220573 40.8018598,100.115202 C40.0708816,107.047636 39.3419509,113.350422 38.7461116,118.144149 C38.6949226,118.557618 38.6437337,118.958495 38.5945923,119.348877 C38.2833634,121.806607 38.0130858,123.794198 37.8042349,125.164734 C37.7878544,125.273873 37.7714739,125.378815 37.7550935,125.481657 C37.6363351,125.483756 37.5073389,125.485855 37.3701526,125.490053" id="Fill-74-Copy" fill="#BFB9C4"></path>
                        <path d="M7.58753952,129.238514 C7.10055332,129.238514 6.83566543,129.208618 6.82943723,129.144228 C6.82547744,129.105134 6.92939499,129.052241 7.13111731,128.987851 C8.54928632,128.544017 14.8312045,127.587359 22.3845846,126.685893 C28.752082,125.924706 34.2434117,125.414182 36.6905683,125.333694 C36.8270874,125.329094 36.9554562,125.326795 37.0736369,125.324495 C37.1490281,125.322195 37.2223817,125.322195 37.2896224,125.322195 C37.4424424,125.322195 37.5728487,125.324495 37.6808415,125.331394 C37.917203,125.345192 38.0455717,125.372788 38.0497217,125.416481 C38.0557597,125.49237 37.6869543,125.609653 37.0084338,125.75913 C36.9024786,125.782127 36.788373,125.807423 36.6661171,125.83042 C36.1261533,125.940803 35.4435576,126.067285 34.6346307,126.200665 C31.7860671,126.678994 27.4093041,127.288403 22.4966526,127.874816 C17.7347833,128.445132 13.4639755,128.872868 10.5889231,129.086736 C9.26040843,129.185622 8.22938325,129.238514 7.58753952,129.238514" id="Fill-75-Copy" fill="#BFB9C4"></path>
                        <path d="M37.0340113,11.6887152 C33.7452917,10.1985379 29.6989177,10.542425 26.707848,12.5640641 C23.7167784,14.5836192 21.883005,18.2121488 22.0287077,21.8219211 C22.1431885,24.6438792 23.2671812,27.8576603 21.4750372,30.0376959 C20.0887795,31.7237847 17.6180768,31.8821812 15.6302748,32.7804559 C11.8544916,34.4894704 9.97700741,39.4893801 11.6921371,43.2658854 C12.6204719,45.3104504 14.4625712,47.1924506 14.1108031,49.4120854 C13.883923,50.8480744 12.74536,51.9839439 11.4860718,52.7050646 C10.2267836,53.4282696 8.81346674,53.8388499 7.50838624,54.4766041 C2.75431309,56.8066996 -0.132683168,62.2192737 0.00469372699,67.519303 C0.142070622,72.8172482 3.05196303,77.844252 7.22738804,81.1018004 C11.4048945,84.3572648 16.7292899,85.9412295 22.0203819,86.1392251 C27.3197996,86.3351365 32.8669121,85.0929747 36.9112047,81.6561881 C39.9459852,79.0780771 41.9275428,75.4641366 43.3887334,71.7564086 C46.1695748,64.7056815 47.2977305,57.0088635 46.6545568,49.457937 C45.9864056,41.62148 43.4574218,34.0247018 42.9058328,26.1819923 C42.7185007,23.5517773 42.7559671,20.8902997 42.1710746,18.3205254 C41.586182,15.750751 40.2727756,13.210155 38.0227086,11.8450275 L37.0340113,11.6887152" id="Fill-86-Copy" fill="#333333"></path>
                        <path d="M35.0494485,13.1329676 C38.0812937,6.8082734 44.11146,2.01218711 50.9399215,0.494092277 C55.1367329,-0.439472963 59.73793,-0.126181925 63.4255925,2.08998421 C67.113255,4.30615034 69.6589993,8.62914614 69.0974689,12.9058842 C68.7496553,15.5509857 67.3227813,17.9080277 66.4155325,20.4164586 C65.5082837,22.9227869 65.2086611,25.9800028 66.8953477,28.0426774 C68.4081274,29.8929869 71.004158,30.3471537 73.0679919,31.5456496 C76.0181219,33.2571859 77.8745247,36.7096952 77.6796653,40.1222546 C77.4827106,43.5369167 75.2449699,46.753932 72.1188378,48.11433 C75.2240173,48.4759814 78.1427184,50.2190571 79.9404538,52.7842589 C81.7360941,55.3515633 82.381435,58.6989414 81.6690457,61.751952 C80.6465574,66.129616 77.1013728,69.4811994 73.2900897,71.8445492 C67.9911701,75.1330538 61.8499549,77.0359289 55.6249291,77.3176806 C49.0206608,77.6183558 41.7060984,75.6587099 38.1148179,70.0888578 C35.755552,66.4302913 35.3951668,61.869699 35.1311637,57.5193691 C34.3349638,44.3947875 33.786005,31.2575901 33.2391414,18.1182901 C33.1511404,16.0051526 33.0652346,13.8583731 33.5618119,11.8020064 L35.0494485,13.1329676" id="Fill-87-Copy" fill="#333333"></path>
                        <g id="Group-26" transform="translate(94.016713, 89.995805) rotate(20.000000) translate(-94.016713, -89.995805) translate(54.516713, 53.995805)">
                            <path d="M0,29.0792103 L59.1861366,51.0927166 L53.5372934,27.37947 L68.9297104,23.4979116 C68.9297104,23.4979116 85.48457,69.8563528 73.987907,71.0947944 C53.8577506,73.2683008 23.3975629,65.3597295 23.3975629,65.3597295 L0,29.0792103" id="Fill-88-Copy" fill="#F2B5B5"></path>
                            <path d="M1.44056202,29.5638358 C-3.74106032,27.5580733 36.0984539,41.9741064 36.0984539,41.9741064 L32.0563672,68.5355755 L16.9053877,63.6905402 L1.44056202,29.5638358" id="Fill-120-Copy" fill="#002E6D"></path>
                            <path d="M54.72838,29.3723895 C54.72838,29.3723895 44.2022813,14.6078184 46.0788953,14.6142378 C47.9555094,14.622797 48.9364667,17.4023879 52.5788039,19.3046638 C52.5788039,19.3046638 46.7613004,0.840390797 48.5632764,1.22769331 C50.3631199,1.61713562 54.658007,13.4673088 54.9373665,13.45447 C55.2188586,13.4394915 51.2353189,0.164216236 52.72808,0.00159197484 C54.2208412,-0.161032287 57.8823711,12.1898524 57.8823711,12.1898524 C57.8823711,12.1898524 55.3745323,0.448808694 56.9568591,0.185614165 C58.539186,-0.077580363 60.8742909,10.736933 60.8742909,10.736933 C60.8742909,10.736933 59.010472,1.6556519 60.4477877,1.43311343 C61.3242518,1.29830648 69.2700062,23.8281861 69.2700062,23.8281861 C69.0610196,23.8281861 54.72838,29.3723895 54.72838,29.3723895" id="Fill-124-Copy" fill="#F2B5B5"></path>
                        </g>
                        <path d="M76.4464358,168.300444 C61.2257686,187.099622 9.65645698,166.590884 9.65645698,166.590884 L9.0379493,147.598456 L7.80507112,102.357413 C9.02553777,84.3395417 25.6838733,75.4978808 25.6838733,75.4978808 C32.5702013,72.0505682 43.0724203,70.0931429 52.5341397,70.5627587 C62.4116453,71.053154 64.8525786,75.8033389 68.9214903,84.8590282 C72.2084759,92.1733986 81.130294,104.088342 74.9431487,126.667305 L76.4464358,168.300444 Z" id="Fill-90-Copy" fill="#002E6D"></path>
                        <g id="Group-29" transform="translate(1.951268, 82.263611)">
                            <path d="M28.4445155,35.2259471 C28.4445155,35.2259471 20.9591297,79.1613024 31.5160327,78.08072 C66.2457136,74.5245838 86.9287962,74.0436309 86.9287962,74.0436309 L92.6852195,85.9466935 C92.818833,87.9725252 26.9118932,106.760917 16.321536,100.550171 C8.84451377,96.163298 -3.06728586,84.3497634 2.33975536,49.0465749 L3.61728908,37.2143019 L28.4445155,35.2259471" id="Fill-92-Copy" fill="#FCBFBF"></path>
                            <path d="M9.74164043,4.30000084 C9.74164043,4.30000084 1.77942641,12.1963799 0,42.0795046 L30.8132546,38.5579743 C30.8132546,38.5579743 35.9481121,-12.3375849 9.74164043,4.30000084" id="Fill-97-Copy" fill="#002E6D"></path>
                            <path d="M32.2838165,35.3618436 C32.2120069,35.3548772 32.2222654,34.7209529 32.3063852,33.582653 C32.3905051,32.4426257 32.5464346,30.7964953 32.7618635,28.7669013 C33.1906696,24.7042585 33.8677319,19.0939424 34.6617413,12.9170672 C34.8422912,11.3849396 34.9366696,9.89081294 34.68431,8.5003251 C34.4524675,7.10638263 33.8102842,5.85235261 32.8767589,4.83669192 C30.9932948,2.78291547 28.3199246,1.71370805 26.0466367,1.25769714 C23.7425733,0.791322332 21.7790926,0.813777415 20.4413817,0.844869069 C19.0975157,0.884597293 18.3506955,0.95541717 18.3382313,0.886324607 C18.326075,0.83277787 19.0523782,0.646227949 20.4085544,0.495951623 C21.7585756,0.357766496 23.7712971,0.229945254 26.210773,0.635864064 C28.6194734,1.03660093 31.5369963,2.10062641 33.652303,4.32713427 C34.7048271,5.42570603 35.4557507,6.85074015 35.7204205,8.3655946 C36.0056073,9.87872174 35.9071255,11.4471229 35.7245239,13.0068876 C34.9284628,19.2010359 34.1344534,24.7871696 33.5127871,28.8359938 C33.2009281,30.8569513 32.9301032,32.4927178 32.7208294,33.6206539 C32.5095039,34.74859 32.3576778,35.3686957 32.2838165,35.3618436" id="Fill-141-Copy" fill="#FFFFFF"></path>
                            <path d="M31.8996413,38.4560185 C31.932131,38.784871 24.9671679,39.8864119 16.3475675,40.9143633 C7.72389168,41.9469142 0.710023013,42.5149321 0.679356834,42.18378 C0.648891096,41.8572271 7.61385423,40.7533866 16.2354923,39.7254351 C24.8550927,38.6951839 31.8709991,38.1248663 31.8996413,38.4560185" id="Fill-142-Copy" fill="#000000"></path>
                            <path d="M107.420878,50.7205879 L95.1760016,47.803024 C94.4959011,47.6409806 93.8539298,48.12727 93.7423177,48.8884924 L88.9867809,81.5792347 C88.8767029,82.3404548 89.3388407,83.0897708 90.0197082,83.251813 L102.264585,86.1685891 C102.945452,86.3314191 103.587423,85.8451297 103.699035,85.0839073 L108.453805,52.3931662 C108.56465,51.6319449 108.102511,50.8834168 107.420878,50.7205879" id="Fill-11" fill="#37305E" transform="translate(98.720396, 66.985941) scale(-1, 1) rotate(-30.000000) translate(-98.720396, -66.985941) "></path>
                            <path d="M106.266391,50.3524664 L94.0207475,47.4349037 C93.340647,47.2728604 92.6986768,47.7583619 92.5870635,48.5203722 L87.831528,81.2103266 C87.7214488,81.9723345 88.1835877,82.7208627 88.8644553,82.8829049 L101.110097,85.8012555 C101.790198,85.9632988 102.432168,85.4777973 102.543781,84.715787 L107.299318,52.0250448 C107.409396,51.2638247 106.947257,50.5152965 106.266391,50.3524664" id="Fill-14" fill="#261C42" transform="translate(97.565423, 66.618080) scale(-1, 1) rotate(-30.000000) translate(-97.565423, -66.618080) "></path>
                            <polygon id="Fill-16" fill="#FFFFFF" transform="translate(97.479223, 65.358236) scale(-1, 1) rotate(-30.000000) translate(-97.479223, -65.358236) " points="104.796559 53.3183391 94.0376293 50.7553956 90.1618864 77.3981338 100.920817 79.9610774"></polygon>
                            <path d="M89.2218661,67.8719254 C90.2336087,69.7915624 95.9326011,72.9137307 97.9845432,73.5236646 C104.659199,74.2659873 105.523576,66.3914828 107.563322,69.4774018 C109.603068,72.5633207 106.993311,84.2240128 104.469148,86.6564195 C97.7701005,93.1119476 82.0076057,88.2637285 81.9532468,88.9157368 C81.9264305,89.2578798 84.1764404,72.8759013 84.1764404,72.8759013 C84.1764404,72.8759013 88.2101234,65.9522883 89.2218661,67.8719254 Z" id="Fill-123-Copy" fill="#FCBFBF"></path>
                        </g>
                        <path d="M26.8550985,25.5453452 L27.5679937,35.0364911 C27.5679937,35.0364911 19.6003415,36.1259872 21.8711224,43.4869878 C24.1419033,50.8479884 29.591358,47.628347 29.591358,47.628347 C29.591358,47.628347 30.9542458,66.4895837 50.0325792,60.5111599 C65.21515,55.7496587 64.2862896,35.8350301 62.3593758,18.857581 C61.6129326,12.280253 55.4715502,7.7587382 49.0554935,9.02450749 L37.5862679,11.2884505 C30.9563426,12.5966953 26.3455881,18.7237832 26.8550985,25.5453452" id="Fill-102-Copy" fill="#FCBFBF"></path>
                        <path d="M45.0332796,27.7770239 C45.9125159,28.4028586 46.1182674,29.6250318 45.4933451,30.5073562 C44.8697007,31.3883981 43.6505271,31.5948723 42.7725687,30.9677551 C41.8946104,30.3419204 41.6888589,29.1184648 42.3137812,28.2374228 C42.9374256,27.3563809 44.1553212,27.1499067 45.0332796,27.7770239" id="Fill-13-Copy-4" fill="#000000"></path>
                        <path d="M57.7165201,27.7770239 C58.5957565,28.4028586 58.801508,29.6250318 58.1765857,30.5073562 C57.5529413,31.3883981 56.3337677,31.5948723 55.4558093,30.9677551 C54.577851,30.3419204 54.3720994,29.1184648 54.9970218,28.2374228 C55.6206661,27.3563809 56.8385618,27.1499067 57.7165201,27.7770239" id="Fill-13-Copy-5" fill="#000000"></path>
                        <path d="M29.2690167,43.0795046 L34.2933664,70.3715599 C35.4269712,76.5197357 41.3799338,80.4549858 47.3533957,79.0040581 C52.8902249,77.6575136 56.4386334,72.1481635 55.4444231,66.4404852 L52.7159818,50.7976051 L29.2690167,43.0795046" id="Fill-103-Copy" fill="#FCBFBF"></path>
                        <path d="M49.7777823,43.2865542 C49.8329811,43.2336226 49.94811,43.5342744 50.211487,43.5745025 C50.4669786,43.610496 50.8565243,43.252678 50.9511507,42.5010483 C51.0820507,41.7557705 51.0095037,40.7775933 50.9306483,39.6406212 C50.8628327,38.4210757 50.7965941,37.216351 50.7272014,35.9523428 C50.4811725,30.7142254 50.4685557,26.454285 50.6940821,26.4351506 C50.9196086,26.414057 51.3012687,30.6464728 51.5457205,35.8845903 C51.5930337,37.1485985 51.640347,38.3575577 51.6860831,39.5771032 C51.7192024,40.6992545 51.7507445,41.8044676 51.5078699,42.721244 C51.3186169,43.6782485 50.5852617,44.2710832 50.1279003,43.9873695 C49.6894643,43.6888349 49.7478173,43.2802024 49.7777823,43.2865542" id="Fill-104-Copy" fill="#000000"></path>
                        <path d="M55.6047442,57.7891421 C55.6902807,57.8954572 54.9161752,58.7792014 53.3166424,59.7316074 C51.7363553,60.6817985 49.2622117,61.6164854 46.4159842,61.6785025 C43.5718951,61.7427345 41.0613984,60.9165777 39.4426198,60.0350484 C37.8045956,59.1535191 36.998414,58.3052133 37.0796736,58.1944684 C37.2208089,57.8733082 41.0143533,60.6618644 46.3946,60.5245408 C51.7705699,60.4270853 55.44864,57.4746266 55.6047442,57.7891421" id="Fill-105-Copy" fill="#8E737E"></path>
                        <path d="M28.399226,35.7241648 C33.5633841,30.5495357 35.0801014,21.9230631 36.4809302,14.6493117 C41.2628592,18.2307823 47.8400449,19.1130827 53.3539019,16.9094224 C55.0840981,19.0001817 57.1172313,20.8275052 59.3638433,22.3098535 C60.0042803,22.7321869 60.7606058,23.139885 61.4884675,22.914083 C62.3545822,22.6464658 62.7408775,21.6240845 62.9462239,20.7187858 C63.604959,17.8168119 63.6293566,14.7120345 62.6453202,11.9104171 C61.6612838,9.10879969 59.5996868,6.64797606 56.8976529,5.57123505 C54.0106039,4.42131747 50.759624,4.92100892 47.7627858,5.72176971 C43.245164,6.92395628 38.892226,8.77427821 34.8666225,11.1995589 C30.9162448,13.5809337 27.1203853,16.7296171 25.4450836,21.1118485 C23.7677488,25.4940799 23.7758813,34.0097423 27.8157168,36.2259471" id="Fill-112-Copy" fill="#333333"></path>
                        <path d="M28.4753883,60.7029383 C28.188552,60.6964977 28.0324505,57.631082 27.8509826,53.8687866 C27.6773198,50.1022159 27.5465849,47.0368002 27.83147,46.9961845 C28.1026962,46.9577065 28.6900278,49.9974701 28.8656419,53.8110696 C29.049061,57.6225313 28.7485658,60.713599 28.4753883,60.7029383" id="Fill-119-Copy" fill="#FFCD00"></path>
                        <path d="M35.8529209,10.5448084 C36.9852843,8.5939531 37.3576722,6.09129681 36.8541885,3.82326455 C36.4400019,1.95713456 35.2069417,0.104039242 33.5235961,0.00410678595 C32.5660271,-0.052376776 31.6388571,0.479872173 30.9358798,1.2250207 C29.1993359,3.06290891 28.7547503,6.2998515 29.9099129,8.66129888 C31.0669755,11.0184014 33.7154899,12.2740744 35.9916164,11.5397881" id="Fill-121-Copy" fill="#333333"></path>
                        <path d="M77.0170686,113.780975 C75.0815402,106.23744 70.3621196,101.517404 70.6730406,101.319304 C70.7621488,101.233749 72.0582321,102.265554 73.6646807,104.35714 C75.2754653,106.436194 77.0813864,109.654283 78.1156348,113.51494 C79.1324748,117.375575 79.1524124,121.028058 78.7748991,123.587215 C78.4039301,126.158917 77.7813333,127.658377 77.6616042,127.6227 C77.2872786,127.588783 79.0787628,121.289151 77.0170686,113.780975 Z" id="Fill-143-Copy" fill="#FFFFFF" transform="translate(74.829366, 114.468855) rotate(14.000000) translate(-74.829366, -114.468855) "></path>
                        <path d="M43.6446567,48.9565245 L51.9674703,46.9834125 C51.9674703,46.9834125 51.3195327,51.0763098 46.9176622,51.1438355 C43.863928,51.1905685 43.6446567,48.9565245 43.6446567,48.9565245" id="Fill-75-Copy-2" fill="#FFFFFF" transform="translate(47.806063, 49.063986) rotate(32.000000) translate(-47.806063, -49.063986) "></path>
                        <g id="movil" transform="translate(99.622351, 149.039665) scale(-1, 1) rotate(-30.000000) translate(-99.622351, -149.039665) translate(88.890378, 129.458072)"></g>
                    </g>
                </g>
            </g>
        </g>
    </g>
</svg>